<svg id="_x33_0" enable-background="new 0 0 64 64" height="512" viewBox="0 0 64 64" width="512" xmlns="http://www.w3.org/2000/svg"><g><g><path d="m32 37.25-9.778-7.335c-2.018-1.511-3.222-3.919-3.222-6.441 0-1.821.627-3.608 1.764-5.03l.683-.852c1.317-1.648 3.282-2.592 5.392-2.592 1.991 0 3.86.852 5.161 2.315 1.302-1.464 3.17-2.315 5.161-2.315 2.109 0 4.075.944 5.394 2.592l.681.852c1.137 1.421 1.764 3.208 1.764 5.03 0 2.522-1.204 4.931-3.222 6.441z" fill="#f0bc5e"/></g><path d="m55.113 29.699 7.83-4.699-10.943-6.566v-7.535c2.279-.465 4-2.484 4-4.899 0-2.757-2.243-5-5-5h-33c-3.421 0-6 2.726-6 6.341v11.03c-.588-.238-1.221-.371-1.873-.371h-9.262l5.833 7-5.833 7h5.721l-.707.707c-.567.566-.879 1.32-.879 2.121v25.172c0 1.654 1.346 3 3 3h48c1.654 0 3-1.346 3-3v-25.172c0-.801-.312-1.555-.879-2.121zm-31.777 16.433-16.336 13.721v-24.038zm7.543-3.724c.625-.525 1.616-.526 2.243.001l22.133 18.591h-46.51zm9.785 3.724 16.336-10.317v24.038zm15.744-12.309-4.408 2.784v-5.041l1.345-.807zm2.649-8.823-7.057 4.234v-8.468zm-37.059-22h29.002c1.654 0 3 1.346 3 3s-1.346 3-3 3h-29.002c.629-.836 1.002-1.875 1.002-3s-.373-2.164-1.002-3zm-3.998 0c1.654 0 3 1.346 3 3s-1.346 3-3 3v2h32v13h-5.031c-.046.685-.175 1.356-.389 2h5.42v11.87l-10.944 6.912-4.646-3.903c-1.348-1.133-3.474-1.132-4.819-.001l-4.647 3.904-10.944-6.912v-7.707l3.469-4.163h14.531v-2h-14.531l-3.469-4.162v-12.497c0-2.516 1.683-4.341 4-4.341zm-7.873 17c.893 0 1.732.394 2.304 1.08l2.434 2.92h-6.396l-3.334-4zm-1.658 6h6.395l-2.434 2.921c-.571.685-1.41 1.079-2.303 1.079h-4.992zm1.658 6c.652 0 1.285-.133 1.873-.371v4.978l-4.408-2.784 1.822-1.823z"/></g></svg>