<svg id="_x33_0" enable-background="new 0 0 64 64" height="512" viewBox="0 0 64 64" width="512" xmlns="http://www.w3.org/2000/svg"><g><g fill="#f0bc5e"><path d="m25 13c-1.654 0-3 1.346-3 3s1.346 3 3 3 3-1.346 3-3-1.346-3-3-3z"/><path d="m34 3c-1.654 0-3 1.346-3 3s1.346 3 3 3 3-1.346 3-3-1.346-3-3-3z"/><path d="m47 12c-1.654 0-3 1.346-3 3s1.346 3 3 3 3-1.346 3-3-1.346-3-3-3z"/><path d="m57 27c0 1.654 1.346 3 3 3s3-1.346 3-3-1.346-3-3-3-3 1.346-3 3z"/><path d="m59 4c0-1.654-1.346-3-3-3s-3 1.346-3 3 1.346 3 3 3 3-1.346 3-3z"/><path d="m8 16c-1.654 0-3 1.346-3 3s1.346 3 3 3 3-1.346 3-3-1.346-3-3-3z"/><path d="m21 57c-1.654 0-3 1.346-3 3s1.346 3 3 3 3-1.346 3-3-1.346-3-3-3z"/><path d="m45 48c-1.654 0-3 1.346-3 3s1.346 3 3 3 3-1.346 3-3-1.346-3-3-3z"/><path d="m60 57c-1.654 0-3 1.346-3 3s1.346 3 3 3 3-1.346 3-3-1.346-3-3-3z"/></g><g><path d="m36.823 49.498 18.36-13.114-.233-.701c-2.53-7.586-9.602-12.683-17.599-12.683h-1.065l-4.286 12.469-4.286-12.469h-1.065c-3.764 0-7.316 1.141-10.293 3.127-.214-.616-.356-1.323-.356-2.127 0-1.817.982-3.158 2.022-4.579.973-1.328 1.978-2.702 1.978-4.421h-2c0 1.065-.738 2.073-1.592 3.24-1.129 1.542-2.408 3.289-2.408 5.76 0 1.313.287 2.43.692 3.362-.664.56-1.284 1.172-1.866 1.823-2.355-1.179-4.692-1.185-6.826-1.185-.567 0-1.095-.039-1.569-.116-.816-.132-1.431-.879-1.431-1.738 0-.472.184-.917.518-1.25l1.189-1.189-1.414-1.414-1.189 1.189c-.712.712-1.104 1.658-1.104 2.664 0 1.859 1.309 3.42 3.111 3.712.579.095 1.215.142 1.889.142 1.903 0 3.737.005 5.545.792-1.048 1.473-1.9 3.11-2.493 4.891l-.233.701 18.36 13.114-3.139 9.132 7.96-5.687 7.961 5.687zm3.177-5.498c-1.103 0-2-.897-2-2s.897-2 2-2 2 .897 2 2-.897 2-2 2zm8-8c0-.293.07-.574.19-.834 1.09.47 2.205.887 3.362 1.203l.154.042-2.149 1.535c-.894-.204-1.557-1.002-1.557-1.946zm4.327-1.493-.25-.068c-5.358-1.461-10.009-4.785-13.143-9.363 5.828.555 10.914 4.148 13.393 9.431zm-11.327-3.507c0 2.206-1.794 4-4 4-.898 0-1.737-.305-2.433-.844l2.728-7.937c1.062 1.549 2.291 2.955 3.648 4.218.026.186.057.373.057.563zm-7.111 5.126c.928.566 1.993.874 3.111.874 2.938 0 5.384-2.123 5.897-4.915 1.101.835 2.27 1.574 3.495 2.221-.247.527-.392 1.098-.392 1.694 0 1.344.674 2.54 1.706 3.267l-3.714 2.653c-.044-2.168-1.814-3.92-3.992-3.92-2.206 0-4 1.794-4 4 0 1.725 1.103 3.184 2.636 3.745l-2.492 1.78-3.087-8.979zm-7.184-9.907 2.979 8.667c-1.333 1.133-5.305 3.733-13.823 4.073l-3.567-2.548.154-.042c5.811-1.585 10.856-5.189 14.257-10.15zm3.668 10.669 1.094 3.183c-1.211.936-4.195 2.642-9.997 2.893l-3.05-2.179c6.491-.632 10.151-2.562 11.953-3.897zm1.773 5.159.908 2.643c-.684.664-2.503 2.032-5.992 2.269l-3.069-2.192c4.129-.503 6.693-1.731 8.153-2.72zm-17.853-9.34 1.414-1.414c-.387-.387-.775-.724-1.164-1.025.374-.401.769-.779 1.179-1.139.827 1.09 1.654 1.658 1.723 1.704l1.109-1.664c-.013-.008-.633-.433-1.259-1.27 2.271-1.556 4.931-2.551 7.769-2.822-3.134 4.577-7.785 7.902-13.143 9.363l-.25.068c.45-.959.993-1.855 1.603-2.694.341.258.68.554 1.019.893zm13.668 20.663.914-2.659 1.404 1.003zm1.456-4.73c2.032-.451 3.44-1.247 4.333-1.929l2.289 6.659z"/><path d="m5.353 11.942c.609 1.218 1.716 2.106 3.038 2.437l6.367 1.592.485-1.94-6.367-1.592c-.754-.188-1.386-.696-1.734-1.391-.093-.186-.142-.393-.142-.601 0-.512.284-.971.742-1.2.323-.162.685-.247 1.047-.247h3.598l-.955-2.867c-.181-.542-.048-1.137.376-1.584.333-.349.8-.549 1.32-.549.94 0 1.822.364 2.483 1.026 1.541 1.54 2.389 3.588 2.389 5.766v2.208h2v-2.208c0-2.712-1.056-5.262-2.974-7.18-1.039-1.04-2.423-1.612-3.937-1.612-1.026 0-2.021.427-2.76 1.204-.905.951-1.209 2.316-.794 3.562l.078.234h-.824c-.671 0-1.343.159-1.941.458-1.14.57-1.848 1.715-1.848 2.989 0 .516.122 1.033.353 1.495z"/><path d="m27.093 4.444c-.224.177-.805.42-1.17.573-1.234.515-2.923 1.221-2.923 2.983 0 3.888 7.181 4 8 4v-2c-2.092 0-6-.586-6-2 0-.43.939-.823 1.694-1.138.975-.407 1.983-.829 2.329-1.757.125-.339.206-.883-.128-1.552-1.215-2.43-5.957-2.553-6.895-2.553v2c1.727.002 4.48.442 5.093 1.444z"/><path d="m31 18c.205 0 2 .044 2 1.571 0 1.702-3.179 2.444-3.209 2.451l.419 1.956c.195-.042 4.79-1.065 4.79-4.407 0-2.62-2.392-3.571-4-3.571z"/><path d="m41 21h2c0-1.621-.881-3.366-2.619-5.188-.891-.932-1.381-2.136-1.381-3.388v-.181c0-1.179.459-2.288 1.293-3.122 1.446-1.446 3.968-1.446 5.414 0l.586.586 1.414-1.414-.586-.586c-1.1-1.101-2.564-1.707-4.121-1.707s-3.021.606-4.121 1.707c-1.212 1.211-1.879 2.822-1.879 4.536v.181c0 1.769.687 3.463 1.934 4.77 1.332 1.396 2.066 2.747 2.066 3.806z"/><path d="m62.109 11.361c-.985-1.478-2.635-2.361-4.412-2.361-1.362 0-2.642.53-3.604 1.493l-.8.8 1.414 1.414.8-.8c.585-.585 1.363-.907 2.19-.907 1.107 0 2.134.55 2.748 1.471.363.544.555 1.178.555 1.832 0 1.472-.573 2.856-1.614 3.897l-.093.093c-1.101 1.101-2.564 1.707-4.122 1.707h-2.171c-3.495 0-5.738 3.305-5.832 3.445l1.663 1.112c.017-.025 1.754-2.557 4.169-2.557h2.171c2.091 0 4.057-.814 5.536-2.293l.093-.093c1.419-1.418 2.2-3.305 2.2-5.312 0-1.049-.308-2.066-.891-2.941z"/><path d="m6.542 50.727c-.888-.43-2.542-1.228-2.542-1.727 0-1.025 2.196-1.816 3.198-2.02l-.394-1.96c-.492.098-4.804 1.045-4.804 3.98 0 1.754 1.951 2.696 3.672 3.527.69.333 2.082 1.005 2.3 1.4-.356.47-1.872 1.442-3.402 2.169l.858 1.807c3.034-1.44 4.572-2.754 4.572-3.903 0-1.604-1.758-2.453-3.458-3.273z"/><path d="m51.196 50.02-.394 1.961c1.002.203 3.198.994 3.198 2.019 0 .499-1.654 1.297-2.542 1.727-1.7.82-3.458 1.669-3.458 3.273 0 1.149 1.538 2.463 4.571 3.903l.858-1.807c-1.501-.713-3.043-1.702-3.401-2.169.221-.396 1.61-1.067 2.3-1.4 1.721-.831 3.672-1.773 3.672-3.527 0-2.935-4.312-3.882-4.804-3.98z"/><path d="m14.316 50.051c-.758-.252-2.169-.723-2.316-1.051 0-.78 1.918-1.695 3.244-2.03l-.486-1.94c-.795.199-4.758 1.324-4.758 3.97 0 1.721 1.957 2.373 3.684 2.949.683.228 1.895.631 2.237.949-.127.131-.312.3-.46.436-.83.761-2.084 1.91-2.008 3.476.053 1.069.69 2.047 1.948 2.99l1.2-1.6c-.51-.383-1.124-.952-1.15-1.489-.031-.627.774-1.364 1.361-1.903.637-.584 1.188-1.089 1.188-1.808 0-1.721-1.957-2.373-3.684-2.949z"/><path d="m28 59h2v2h-2z"/><path d="m20 49h2v2h-2z"/><path d="m10 59h2v2h-2z"/><path d="m58 47h2v2h-2z"/><path d="m42 57h2v2h-2z"/><path d="m49 3h2v2h-2z"/><path d="m20 20h2v2h-2z"/><path d="m32 12h2v2h-2z"/><path d="m4 4h2v2h-2z"/><path d="m56 15h2v2h-2z"/></g></g></svg>