<svg id="_x33_0" enable-background="new 0 0 64 64" height="512" viewBox="0 0 64 64" width="512" xmlns="http://www.w3.org/2000/svg"><g><g><path d="m13 44h-6v-7c0-1.103.897-2 2-2h2c1.103 0 2 .897 2 2z" fill="#f0bc5e"/></g><g><path d="m57 44h-6v-7c0-1.103.897-2 2-2h2c1.103 0 2 .897 2 2z" fill="#f0bc5e"/></g><g><path d="m41 42h-18v-32h18z" fill="#f0bc5e"/></g><path d="m61 23h-12v-12c0-1.103-.826-2-1.842-2h-4.158v-2h2c1.103 0 2-.897 2-2v-2c0-1.103-.897-2-2-2h-26c-1.103 0-2 .897-2 2v2c0 1.103.897 2 2 2h2v2h-4.158c-1.016 0-1.842.897-1.842 2v12h-12c-1.103 0-2 .897-2 2v4c0 1.103.897 2 2 2v32h58v-32c1.103 0 2-.897 2-2v-4c0-1.103-.897-2-2-2zm-14 38h-2v-18c0-1.103-.897-2-2-2h-10v-6h8v-2h-8v-6h8v-2h-8v-6h8v-2h-8v-6h14zm-16-6v6h-6v-14h6v6h-2v2zm2 0h2v-2h-2v-6h6v14h-6zm-10-10v16h-2v-18h22v18h-2v-16zm-4-42h26l.002 2h-26.002zm4 4h18v2h-18zm8 4v6h-8v2h8v6h-8v2h8v6h-8v2h8v6h-10c-1.103 0-2 .897-2 2v18h-2l.013-50zm-28 14h12v4h-12zm12 6v12h-10v-12zm-10 14h10v16h-10zm44 16v-16h10v16zm10-18h-10v-12h10zm2-14h-12v-4h12z"/></g></svg>