<svg id="_x33_0" enable-background="new 0 0 64 64" height="512" viewBox="0 0 64 64" width="512" xmlns="http://www.w3.org/2000/svg"><g><g><path d="m47.146 8.639c-3.226-4.318-8.091-7.072-13.348-7.556-5.425-.503-10.605 1.233-14.599 4.876-3.939 3.594-6.199 8.712-6.199 14.041 0 6.601 2.942 10.35 5.539 13.657.715.911 1.391 1.772 1.985 2.663.966 1.445 1.476 3.155 1.476 4.943v5.921c-1.161.414-2 1.514-2 2.816s.839 2.402 2 2.816v2.184c0 4.411 3.589 8 8 8h4c4.411 0 8-3.589 8-8v-2.184c1.161-.414 2-1.514 2-2.816s-.839-2.402-2-2.816v-5.93c0-1.746.466-3.385 1.347-4.74.624-.959 1.349-1.882 2.115-2.859 2.022-2.576 4.314-5.496 5.178-9.847 1.046-5.268-.228-10.797-3.494-15.169zm-6.896 30.361c-.132.651-.218 1.316-.233 2h-16.026c-.016-.679-.09-1.348-.225-2zm-7.25 8v-4h7v4zm-9-4h7v4h-7zm17 8h-3.269v2h2.269v2c0 3.309-2.691 6-6 6h-4c-3.309 0-6-2.691-6-6v-2h2.268v-2h-3.268c-.552 0-1-.449-1-1s.448-1 1-1h18c.552 0 1 .449 1 1s-.448 1-1 1zm2.889-18.58c-.795 1.013-1.546 1.97-2.218 3.003-.322.496-.585 1.028-.816 1.577h-4.605c.483-1.759 1.325-3.311 2.214-4.934.97-1.771 1.974-3.603 2.672-5.926l-1.916-.575c-.638 2.122-1.589 3.86-2.51 5.541-1.036 1.89-2.018 3.691-2.527 5.895h-4.366c-.509-2.204-1.491-4.004-2.527-5.895-.92-1.681-1.872-3.419-2.51-5.541l-1.916.575c.698 2.324 1.702 4.155 2.672 5.927.889 1.623 1.731 3.174 2.214 4.934h-4.608c-.262-.623-.576-1.225-.954-1.791-.638-.955-1.337-1.845-2.076-2.788-2.053-2.615-4.161-5.304-4.866-9.421h3.954v-2h-4.173c-.016-.327-.027-.658-.027-1.001 0-.335.033-.667.053-1h3.253v-2h-3.018c.658-3.65 2.483-7.031 5.259-9.563 2.469-2.252 5.454-3.665 8.659-4.191-2.321 2.435-5.798 6.949-6.879 13.048l1.969.35c1.23-6.934 5.999-11.782 7.704-13.325 1.705 1.543 6.474 6.391 7.704 13.324l1.969-.35c-1.081-6.097-4.556-10.611-6.877-13.046 4.234.707 8.105 3.051 10.747 6.588 1.604 2.147 2.65 4.607 3.135 7.164h-2.983v2h3.24c.046.665.054 1.332.021 2h-4.156v2h3.939c-.024.139-.032.28-.06.419-.771 3.883-2.815 6.486-4.79 9.002z"/><path d="m29.694 17h4.611v2h-4.611z"/><path d="m28.8 21h6.4v2h-6.4z"/></g><path d="m36 50c-.771 0-1.468.301-2 .78-.532-.48-1.229-.78-2-.78s-1.468.301-2 .78c-.532-.48-1.229-.78-2-.78-1.654 0-3 1.346-3 3s1.346 3 3 3c.771 0 1.468-.301 2-.78.532.48 1.229.78 2 .78s1.468-.301 2-.78c.532.48 1.229.78 2 .78 1.654 0 3-1.346 3-3s-1.346-3-3-3z" fill="#f0bc5e"/><g><path d="m24 27.302-5.418-4.515c-1.005-.838-1.582-2.07-1.582-3.379 0-1.174.457-2.278 1.287-3.11.84-.839 1.948-1.298 3.127-1.298h.172c.87 0 1.702.25 2.414.717.712-.467 1.544-.717 2.414-.717h.172c1.179 0 2.287.459 3.121 1.292.836.837 1.293 1.942 1.293 3.116 0 1.31-.577 2.541-1.582 3.379z" fill="#f0bc5e"/></g><g><path d="m40 27.302-5.418-4.515c-1.005-.838-1.582-2.07-1.582-3.379 0-1.174.457-2.278 1.287-3.11.84-.839 1.948-1.298 3.127-1.298h.172c.87 0 1.702.25 2.414.717.712-.467 1.544-.717 2.414-.717h.172c1.179 0 2.287.459 3.121 1.292.836.837 1.293 1.942 1.293 3.116 0 1.31-.577 2.541-1.582 3.379z" fill="#f0bc5e"/></g></g></svg>